<svg width="32" height="32" viewBox="0 0 32 32" fill="none" xmlns="http://www.w3.org/2000/svg">
  <!-- EU Blue background circle -->
  <circle cx="16" cy="16" r="16" fill="#003399"/>
  
  <!-- 12 EU stars arranged in a circle -->
  <g fill="#FFCC00">
    <!-- Top star -->
    <path d="M16 4L17.5 6.5L20.5 6.5L18.5 8.5L19 11.5L16 9.5L13 11.5L13.5 8.5L11.5 6.5L14.5 6.5L16 4Z"/>
    
    <!-- Top-right star -->
    <path d="M24 8L25.2 9.8L27.2 9.2L26.2 11L27.2 12.8L24 11.8L20.8 12.8L21.8 11L20.8 9.2L22.8 9.8L24 8Z"/>
    
    <!-- Right star -->
    <path d="M28 16L26.5 17.5L28 20L25.5 18.5L23 20L24.5 17.5L23 15L25.5 16.5L28 16Z"/>
    
    <!-- Bottom-right star -->
    <path d="M24 24L22.8 25.2L24 27.2L21.8 26.2L19.6 27.2L20.8 25.2L19.6 23L21.8 24L24 24Z"/>
    
    <!-- Bottom star -->
    <path d="M16 28L14.5 26.5L11.5 28L13.5 26L13 23L16 25L19 23L18.5 26L20.5 28L16 28Z"/>
    
    <!-- Bottom-left star -->
    <path d="M8 24L6.8 22.8L4.8 24L6.8 25.2L4.8 26.4L7 25.4L9.2 26.4L8 24Z"/>
    
    <!-- Left star -->
    <path d="M4 16L5.5 14.5L4 12L6.5 13.5L9 12L7.5 14.5L9 17L6.5 15.5L4 16Z"/>
    
    <!-- Top-left star -->
    <path d="M8 8L9.2 6.8L8 4.8L10.2 5.8L12.4 4.8L11.2 6.8L12.4 8.8L10.2 7.8L8 8Z"/>
    
    <!-- Additional stars for 12 total -->
    <path d="M16 8L17.2 9.2L16 11.2L18.2 10.2L20.4 11.2L19.2 9.2L20.4 7.2L18.2 8.2L16 8Z"/>
    <path d="M20 12L21.2 13.2L20 15.2L22.2 14.2L24.4 15.2L23.2 13.2L24.4 11.2L22.2 12.2L20 12Z"/>
    <path d="M20 20L21.2 21.2L20 23.2L22.2 22.2L24.4 23.2L23.2 21.2L24.4 19.2L22.2 20.2L20 20Z"/>
    <path d="M12 20L13.2 21.2L12 23.2L14.2 22.2L16.4 23.2L15.2 21.2L16.4 19.2L14.2 20.2L12 20Z"/>
  </g>
  
  <!-- Central question mark -->
  <text x="16" y="22" font-family="Arial, sans-serif" font-size="16" font-weight="bold" text-anchor="middle" fill="black">?</text>
</svg>


